<?xml version="1.0" encoding="UTF-8"?>

<svg viewBox="-87.6502002670227 0 175.3004005340454 100" xmlns="http://www.w3.org/2000/svg"
  xmlns:xlink="http://www.w3.org/1999/xlink" version="1.1">
  <g transform="translate(-89.65287049399198 97.32977303070761) scale(1.898828067052366)" fill="currentColor">
    <g id="line1">
      <path
        d="M21.340-9.738C21.434-9.973 21.480-10.160 21.480-10.301C21.480-10.652 21.357-10.969 21.111-11.250C20.865-11.531 20.543-11.672 20.145-11.672C19.887-11.672 19.652-11.607 19.441-11.479C19.230-11.350 19.066-11.168 18.949-10.934C18.645-10.301 18.217-9.463 17.666-8.420C17.115-7.377 16.477-6.352 15.750-5.344C15.023-4.336 14.227-3.463 13.359-2.725C12.492-1.986 11.590-1.617 10.652-1.617C9.270-1.617 8.086-2.467 7.102-4.166C6.117-5.865 5.332-8.203 4.746-11.180C6.059-13.570 7.289-16.025 8.438-18.545C9.586-21.064 10.582-23.590 11.426-26.121C12.270-28.652 12.938-31.166 13.430-33.662C13.922-36.158 14.168-38.578 14.168-40.922C14.168-42.820 14.051-44.426 13.816-45.738C13.582-47.051 13.254-48.117 12.832-48.938C12.410-49.758 11.889-50.350 11.268-50.713C10.646-51.076 9.949-51.258 9.176-51.258C8.191-51.258 7.313-50.859 6.539-50.063C5.766-49.266 5.080-48.188 4.482-46.828C3.885-45.469 3.369-43.887 2.936-42.082C2.502-40.277 2.145-38.367 1.863-36.352C1.582-34.336 1.377-32.273 1.248-30.164C1.119-28.055 1.055-26.016 1.055-24.047C1.055-22.687 1.096-21.129 1.178-19.371C1.260-17.613 1.418-15.803 1.652-13.939C1.887-12.076 2.221-10.248 2.654-8.455C3.088-6.662 3.656-5.063 4.359-3.656C5.063-2.250 5.918-1.113 6.926-0.246C7.934 0.621 9.141 1.055 10.547 1.055C11.461 1.055 12.322 0.861 13.131 0.475C13.939 0.088 14.701-0.416 15.416-1.037C16.131-1.658 16.793-2.361 17.402-3.146C18.012-3.932 18.563-4.723 19.055-5.520C19.547-6.316 19.986-7.084 20.373-7.822C20.760-8.561 21.082-9.199 21.340-9.738ZM3.727-23.871C3.727-25.840 3.791-27.820 3.920-29.813C4.049-31.805 4.225-33.715 4.447-35.543C4.670-37.371 4.945-39.082 5.273-40.676C5.602-42.270 5.965-43.652 6.363-44.824C6.762-45.996 7.189-46.922 7.646-47.602C8.104-48.281 8.578-48.621 9.070-48.621C9.820-48.621 10.418-48.023 10.863-46.828C11.309-45.633 11.531-43.652 11.531-40.887C11.531-38.918 11.326-36.850 10.916-34.682C10.506-32.514 9.961-30.334 9.281-28.143C8.602-25.951 7.816-23.783 6.926-21.639C6.035-19.494 5.098-17.473 4.113-15.574C3.996-16.840 3.902-18.164 3.832-19.547C3.762-20.930 3.727-22.371 3.727-23.871Z">
      </path>
      <path
        d="M24.680-27.598C24.680-28.043 24.598-28.459 24.434-28.846C24.270-29.232 24.041-29.572 23.748-29.865C23.455-30.158 23.115-30.387 22.729-30.551C22.342-30.715 21.926-30.797 21.480-30.797C21.035-30.797 20.619-30.715 20.232-30.551C19.846-30.387 19.506-30.158 19.213-29.865C18.920-29.572 18.691-29.232 18.527-28.846C18.363-28.459 18.281-28.043 18.281-27.598C18.281-26.707 18.592-25.951 19.213-25.330C19.834-24.709 20.590-24.398 21.480-24.398C22.371-24.398 23.127-24.709 23.748-25.330C24.369-25.951 24.680-26.707 24.680-27.598ZM18.984-6.996C18.984-5.824 19.119-4.729 19.389-3.709C19.658-2.689 20.068-1.805 20.619-1.055C21.170-0.305 21.844 0.293 22.641 0.738C23.438 1.184 24.363 1.406 25.418 1.406C26.238 1.406 27.047 1.207 27.844 0.809C28.641 0.410 29.402-0.111 30.129-0.756C30.855-1.400 31.541-2.127 32.186-2.936C32.830-3.744 33.422-4.559 33.961-5.379C34.500-6.199 34.980-6.996 35.402-7.770C35.824-8.543 36.176-9.199 36.457-9.738C36.551-9.902 36.598-10.102 36.598-10.336C36.598-10.664 36.475-10.969 36.229-11.250C35.982-11.531 35.672-11.672 35.297-11.672C35.039-11.672 34.805-11.607 34.594-11.479C34.383-11.350 34.219-11.168 34.102-10.934C33.375-9.480 32.637-8.162 31.887-6.979C31.137-5.795 30.393-4.781 29.654-3.938C28.916-3.094 28.195-2.437 27.492-1.969C26.789-1.500 26.109-1.266 25.453-1.266C25.055-1.266 24.639-1.336 24.205-1.477C23.771-1.617 23.361-1.898 22.975-2.320C22.588-2.742 22.271-3.334 22.025-4.096C21.779-4.857 21.656-5.859 21.656-7.102C21.656-8.016 21.686-9.018 21.744-10.107C21.803-11.197 21.873-12.229 21.955-13.201C22.037-14.174 22.107-15.012 22.166-15.715C22.225-16.418 22.254-16.840 22.254-16.980C22.254-17.332 22.137-17.643 21.902-17.912C21.668-18.182 21.375-18.316 21.023-18.316C20.625-18.316 20.303-18.193 20.057-17.947C19.811-17.701 19.664-17.414 19.617-17.086C19.195-13.734 18.984-10.371 18.984-6.996ZM22.711-27.598C22.711-27.270 22.588-26.988 22.342-26.754C22.096-26.520 21.809-26.402 21.480-26.402C21.152-26.402 20.871-26.520 20.637-26.754C20.402-26.988 20.285-27.270 20.285-27.598C20.285-27.926 20.402-28.213 20.637-28.459C20.871-28.705 21.152-28.828 21.480-28.828C21.809-28.828 22.096-28.705 22.342-28.459C22.588-28.213 22.711-27.926 22.711-27.598Z">
      </path>
      <path
        d="M61.242-9.809C61.313-9.973 61.348-10.137 61.348-10.301C61.348-10.629 61.225-10.939 60.979-11.232C60.732-11.525 60.410-11.672 60.012-11.672C59.754-11.672 59.514-11.602 59.291-11.461C59.068-11.320 58.898-11.121 58.781-10.863C58.570-10.418 58.313-9.891 58.008-9.281C57.703-8.672 57.352-8.039 56.953-7.383C56.555-6.727 56.115-6.076 55.635-5.432C55.154-4.787 54.650-4.213 54.123-3.709C53.596-3.205 53.057-2.801 52.506-2.496C51.955-2.191 51.398-2.039 50.836-2.039C49.969-2.039 49.289-2.332 48.797-2.918C48.305-3.504 47.936-4.195 47.689-4.992C47.443-5.789 47.285-6.592 47.215-7.400C47.145-8.209 47.098-8.836 47.074-9.281C47.051-9.609 46.916-9.902 46.670-10.160C46.424-10.418 46.137-10.547 45.809-10.547C45.457-10.547 45.152-10.436 44.895-10.213C44.637-9.990 44.484-9.715 44.438-9.387C44.273-8.168 43.986-7.113 43.576-6.223C43.166-5.332 42.709-4.594 42.205-4.008C41.701-3.422 41.174-2.988 40.623-2.707C40.072-2.426 39.586-2.285 39.164-2.285C38.578-2.285 38.086-2.402 37.688-2.637C37.289-2.871 36.973-3.176 36.738-3.551C36.504-3.926 36.340-4.342 36.246-4.799C36.152-5.256 36.105-5.707 36.105-6.152C36.105-7.582 36.334-8.818 36.791-9.861C37.248-10.904 37.816-11.771 38.496-12.463C39.176-13.154 39.926-13.664 40.746-13.992C41.566-14.320 42.340-14.484 43.066-14.484C43.559-14.484 43.998-14.432 44.385-14.326C44.771-14.221 45.105-14.098 45.387-13.957C45.668-13.816 45.891-13.682 46.055-13.553C46.219-13.424 46.324-13.336 46.371-13.289C46.629-13.031 46.945-12.902 47.320-12.902C47.672-12.902 47.977-13.037 48.234-13.307C48.492-13.576 48.621-13.887 48.621-14.238C48.621-14.566 48.492-14.883 48.234-15.188C48.211-15.211 48.082-15.322 47.848-15.521C47.613-15.721 47.279-15.937 46.846-16.172C46.412-16.406 45.891-16.623 45.281-16.822C44.672-17.021 44.004-17.121 43.277-17.121C42.199-17.121 41.080-16.887 39.920-16.418C38.760-15.949 37.699-15.246 36.738-14.309C35.777-13.371 34.986-12.205 34.365-10.811C33.744-9.416 33.434-7.805 33.434-5.977C33.434-5.063 33.568-4.219 33.838-3.445C34.107-2.672 34.488-1.998 34.980-1.424C35.473-0.850 36.070-0.404 36.773-0.088C37.477 0.229 38.262 0.387 39.129 0.387C40.230 0.387 41.332-0.006 42.434-0.791C43.535-1.576 44.484-2.637 45.281-3.973C45.703-2.660 46.377-1.570 47.303-0.703C48.229 0.164 49.371 0.598 50.730 0.598C51.691 0.598 52.605 0.369 53.473-0.088C54.340-0.545 55.148-1.125 55.898-1.828C56.648-2.531 57.328-3.305 57.938-4.148C58.547-4.992 59.080-5.801 59.537-6.574C59.994-7.348 60.369-8.033 60.662-8.631C60.955-9.229 61.148-9.621 61.242-9.809Z">
      </path>
      <path
        d="M66.621-3.164C66.691-3.844 66.768-4.687 66.850-5.695C66.932-6.703 67.020-7.717 67.113-8.736C67.207-9.756 67.283-10.711 67.342-11.602C67.400-12.492 67.430-13.148 67.430-13.570C67.430-14.133 67.377-14.684 67.271-15.223C67.166-15.762 67.002-16.254 66.779-16.699C66.557-17.145 66.258-17.502 65.883-17.771C65.508-18.041 65.051-18.176 64.512-18.176C63.598-18.176 62.678-17.584 61.752-16.400C60.826-15.217 59.836-13.371 58.781-10.863C58.711-10.676 58.676-10.500 58.676-10.336C58.676-9.984 58.793-9.674 59.027-9.404C59.262-9.135 59.578-9 59.977-9C60.234-9 60.480-9.070 60.715-9.211C60.949-9.352 61.125-9.551 61.242-9.809C62.086-11.848 62.777-13.271 63.316-14.080C63.855-14.889 64.230-15.328 64.441-15.398C64.582-15.281 64.676-14.953 64.723-14.414C64.770-13.875 64.793-13.313 64.793-12.727C64.793-12.281 64.770-11.730 64.723-11.074C64.676-10.418 64.617-9.709 64.547-8.947C64.477-8.186 64.406-7.418 64.336-6.645C64.266-5.871 64.195-5.150 64.125-4.482C64.055-3.814 63.996-3.240 63.949-2.760C63.902-2.279 63.879-1.957 63.879-1.793C63.879-1.043 64.084-0.463 64.494-0.053C64.904 0.357 65.449 0.563 66.129 0.563C66.621 0.563 67.102 0.393 67.570 0.053C68.039-0.287 68.508-0.949 68.977-1.934C69.211-2.449 69.533-3.100 69.943-3.885C70.354-4.670 70.799-5.496 71.279-6.363C71.760-7.230 72.275-8.104 72.826-8.982C73.377-9.861 73.916-10.652 74.443-11.355C74.971-12.059 75.475-12.627 75.955-13.061C76.436-13.494 76.863-13.711 77.238-13.711C77.426-13.711 77.637-13.576 77.871-13.307C78.105-13.037 78.223-12.527 78.223-11.777C78.223-11.332 78.205-10.863 78.170-10.371C78.135-9.879 78.088-9.387 78.029-8.895C77.971-8.402 77.924-7.934 77.889-7.488C77.854-7.043 77.836-6.645 77.836-6.293C77.836-5.473 77.900-4.658 78.029-3.850C78.158-3.041 78.410-2.303 78.785-1.635C79.160-0.967 79.676-0.428 80.332-0.018C80.988 0.393 81.844 0.598 82.898 0.598C83.836 0.598 84.732 0.363 85.588-0.105C86.443-0.574 87.240-1.160 87.979-1.863C88.717-2.566 89.391-3.346 90-4.201C90.609-5.057 91.143-5.865 91.600-6.627C92.057-7.389 92.426-8.062 92.707-8.648C92.988-9.234 93.176-9.621 93.270-9.809C93.340-9.973 93.375-10.137 93.375-10.301C93.375-10.629 93.252-10.939 93.006-11.232C92.760-11.525 92.437-11.672 92.039-11.672C91.781-11.672 91.541-11.602 91.318-11.461C91.096-11.320 90.926-11.121 90.809-10.863C90.551-10.254 90.158-9.457 89.631-8.473C89.104-7.488 88.482-6.521 87.768-5.572C87.053-4.623 86.273-3.803 85.430-3.111C84.586-2.420 83.719-2.074 82.828-2.074C82.336-2.074 81.938-2.186 81.633-2.408C81.328-2.631 81.094-2.936 80.930-3.322C80.766-3.709 80.654-4.160 80.596-4.676C80.537-5.191 80.508-5.730 80.508-6.293C80.508-6.738 80.525-7.213 80.561-7.717C80.596-8.221 80.631-8.719 80.666-9.211C80.701-9.703 80.736-10.166 80.771-10.600C80.807-11.033 80.824-11.402 80.824-11.707C80.824-13.020 80.531-14.121 79.945-15.012C79.359-15.902 78.457-16.348 77.238-16.348C76.629-16.348 75.979-16.166 75.287-15.803C74.596-15.439 73.910-14.848 73.230-14.027C72.551-13.184 71.900-12.293 71.279-11.355C70.658-10.418 70.066-9.475 69.504-8.525C68.941-7.576 68.414-6.639 67.922-5.713C67.430-4.787 66.996-3.938 66.621-3.164Z">
      </path>
    </g>
  </g>
</svg>